REM DIRINDEX 1\2,1\3,1\4,1\5
REM DIRNAME cjc004,folder01,folder02,folder03,folder04
TITLE ""
FILE "1Q_t_0110-0119.mp3" MP3
  TRACK 01 AUDIO
    TITLE "3:cjc004_1230"
    INDEX 01 00:00:00
  TRACK 02 AUDIO
    TITLE "0:"
    INDEX 01 00:00:62
  TRACK 03 AUDIO
    TITLE "4:cjc004_1231"
    INDEX 01 00:01:22
  TRACK 04 AUDIO
    TITLE "0:"
    INDEX 01 00:02:32
  TRACK 05 AUDIO
    TITLE "5:cjc004_1232"
    INDEX 01 00:02:57
  TRACK 06 AUDIO
    TITLE "0:"
    INDEX 01 00:07:07
  TRACK 07 AUDIO
    TITLE "3:cjc004_1233"
    INDEX 01 00:07:66
  TRACK 08 AUDIO
    TITLE "0:"
    INDEX 01 00:08:72
  TRACK 09 AUDIO
    TITLE "4:cjc004_1234"
    INDEX 01 00:09:30
  TRACK 10 AUDIO
    TITLE "0:"
    INDEX 01 00:10:35
  TRACK 11 AUDIO
    TITLE "5:cjc004_1235"
    INDEX 01 00:10:61
  TRACK 12 AUDIO
    TITLE "0:"
    INDEX 01 00:16:06
  TRACK 13 AUDIO
    TITLE "3:cjc004_1236"
    INDEX 01 00:16:65
  TRACK 14 AUDIO
    TITLE "0:"
    INDEX 01 00:18:03
  TRACK 15 AUDIO
    TITLE "4:cjc004_1237"
    INDEX 01 00:18:31
  TRACK 16 AUDIO
    TITLE "0:"
    INDEX 01 00:19:46
  TRACK 17 AUDIO
    TITLE "5:cjc004_1238"
    INDEX 01 00:20:02
  TRACK 18 AUDIO
    TITLE "0:"
    INDEX 01 00:24:39
  TRACK 19 AUDIO
    TITLE "3:cjc004_1239"
    INDEX 01 00:25:23
  TRACK 20 AUDIO
    TITLE "0:"
    INDEX 01 00:26:34
  TRACK 21 AUDIO
    TITLE "4:cjc004_1240"
    INDEX 01 00:26:60
  TRACK 22 AUDIO
    TITLE "0:"
    INDEX 01 00:27:65
  TRACK 23 AUDIO
    TITLE "5:cjc004_1241"
    INDEX 01 00:28:27
  TRACK 24 AUDIO
    TITLE "0:"
    INDEX 01 00:31:55
  TRACK 25 AUDIO
    TITLE "3:cjc004_1242"
    INDEX 01 00:32:41
  TRACK 26 AUDIO
    TITLE "0:"
    INDEX 01 00:33:56
  TRACK 27 AUDIO
    TITLE "4:cjc004_1243"
    INDEX 01 00:34:12
  TRACK 28 AUDIO
    TITLE "0:"
    INDEX 01 00:36:03
  TRACK 29 AUDIO
    TITLE "5:cjc004_1244"
    INDEX 01 00:36:29
  TRACK 30 AUDIO
    TITLE "0:"
    INDEX 01 00:41:34
  TRACK 31 AUDIO
    TITLE "3:cjc004_1245"
    INDEX 01 00:42:23
  TRACK 32 AUDIO
    TITLE "0:"
    INDEX 01 00:43:44
  TRACK 33 AUDIO
    TITLE "4:cjc004_1246"
    INDEX 01 00:43:72
  TRACK 34 AUDIO
    TITLE "0:"
    INDEX 01 00:45:00
  TRACK 35 AUDIO
    TITLE "5:cjc004_1247"
    INDEX 01 00:45:24
  TRACK 36 AUDIO
    TITLE "0:"
    INDEX 01 00:51:50
  TRACK 37 AUDIO
    TITLE "3:cjc004_1248"
    INDEX 01 00:52:32
  TRACK 38 AUDIO
    TITLE "0:"
    INDEX 01 00:53:47
  TRACK 39 AUDIO
    TITLE "4:cjc004_1249"
    INDEX 01 00:54:03
  TRACK 40 AUDIO
    TITLE "0:"
    INDEX 01 00:55:44
  TRACK 41 AUDIO
    TITLE "5:cjc004_1250"
    INDEX 01 00:55:73
  TRACK 42 AUDIO
    TITLE "0:"
    INDEX 01 01:00:47
  TRACK 43 AUDIO
    TITLE "3:cjc004_1251"
    INDEX 01 01:01:31
  TRACK 44 AUDIO
    TITLE "0:"
    INDEX 01 01:02:44
  TRACK 45 AUDIO
    TITLE "4:cjc004_1252"
    INDEX 01 01:02:73
  TRACK 46 AUDIO
    TITLE "0:"
    INDEX 01 01:04:11
  TRACK 47 AUDIO
    TITLE "5:cjc004_1253"
    INDEX 01 01:04:41
  TRACK 48 AUDIO
    TITLE "0:"
    INDEX 01 01:09:73
  TRACK 49 AUDIO
    TITLE "3:cjc004_1254"
    INDEX 01 01:10:59
  TRACK 50 AUDIO
    TITLE "0:"
    INDEX 01 01:11:58
  TRACK 51 AUDIO
    TITLE "4:cjc004_1255"
    INDEX 01 01:12:17
  TRACK 52 AUDIO
    TITLE "0:"
    INDEX 01 01:14:08
  TRACK 53 AUDIO
    TITLE "5:cjc004_1256"
    INDEX 01 01:14:35
  TRACK 54 AUDIO
    TITLE "0:"
    INDEX 01 01:19:05
  TRACK 55 AUDIO
    TITLE "3:cjc004_1257"
    INDEX 01 01:19:64
  TRACK 56 AUDIO
    TITLE "0:"
    INDEX 01 01:20:73
  TRACK 57 AUDIO
    TITLE "4:cjc004_1258"
    INDEX 01 01:21:27
  TRACK 58 AUDIO
    TITLE "0:"
    INDEX 01 01:22:58
  TRACK 59 AUDIO
    TITLE "5:cjc004_1259"
    INDEX 01 01:23:09
  TRACK 60 AUDIO
    TITLE "0:"
    INDEX 01 01:28:08
